<svg width="37" height="54" viewBox="0 0 37 54" fill="none" xmlns="http://www.w3.org/2000/svg">
<g id="figma-1 1" clip-path="url(#clip0_1_80)">
<path id="path0 fill" d="M9.70686 53.4674C14.6065 53.4674 18.583 49.5149 18.583 44.6448V35.8223H9.70686C4.80726 35.8223 0.830765 39.7748 0.830765 44.6448C0.830765 49.5149 4.80726 53.4674 9.70686 53.4674Z" fill="#0ACF83"/>
<path id="path1 fill" d="M0.830765 27.0003C0.830765 22.1302 4.80726 18.1777 9.70686 18.1777H18.583V35.8228H9.70686C4.80726 35.8228 0.830765 31.8703 0.830765 27.0003Z" fill="#A259FF"/>
<path id="path1 fill 1" d="M0.830765 9.35575C0.830765 4.4857 4.80726 0.533203 9.70686 0.533203H18.583V18.1783H9.70686C4.80726 18.1783 0.830765 14.2258 0.830765 9.35575Z" fill="#F24E1E"/>
<path id="path2 fill" d="M18.5826 0.533211H27.4587C32.3583 0.533211 36.3348 4.48571 36.3348 9.35576C36.3348 14.2258 32.3583 18.1783 27.4587 18.1783H18.5826V0.533211Z" fill="#FF7262"/>
<path id="path3 fill" d="M36.3349 27.0003C36.3349 31.8703 32.3584 35.8228 27.4588 35.8228C22.5592 35.8228 18.5827 31.8703 18.5827 27.0003C18.5827 22.1302 22.5592 18.1777 27.4588 18.1777C32.3584 18.1777 36.3349 22.1302 36.3349 27.0003Z" fill="#1ABCFE"/>
</g>
<defs>
<clipPath id="clip0_1_80">
<rect width="35.5115" height="52.9352" fill="white" transform="translate(0.826859 0.533203)"/>
</clipPath>
</defs>
</svg>
