<svg width="103" height="103" viewBox="0 0 103 103" fill="none" xmlns="http://www.w3.org/2000/svg">
<g id="Logo">
<circle id="Ellipse 30" cx="51.4218" cy="51.539" r="50.6894" fill="#0D161A"/>
<path id="Vector" d="M32.9925 72.8812C32.5432 72.0114 32.1987 71.0965 31.989 70.1217C31.7494 69.1318 31.6445 68.112 31.6445 67.0322C31.6445 65.9523 31.8243 64.5276 32.1987 62.7579C32.5731 60.9882 33.0824 59.1135 33.7264 57.1638C34.3704 55.1991 35.1193 53.1894 35.973 51.1348C36.8267 49.0801 37.7403 47.0854 38.6989 45.1207C40.6609 41.0564 42.623 37.532 44.585 34.5625H44.2405C41.8441 34.5625 39.6275 35.1024 37.5756 36.1972C37.0813 36.5871 36.6021 36.7671 36.1378 36.7671C35.1792 36.7671 34.2356 36.2872 33.337 35.3423C31.2401 33.1227 32.4982 31.293 37.0813 29.8532C39.2381 29.1483 40.9605 28.7884 42.2785 28.7884C43.5965 28.7884 44.6599 28.9984 45.4537 29.4033C46.2475 29.8082 46.9365 30.3032 47.5056 30.8731C48.3893 31.7579 49.0183 32.6278 49.3928 33.4976C49.7672 34.3675 49.9469 35.1174 49.9469 35.7773C49.9469 36.4372 49.7522 37.307 49.3628 38.4018C48.9734 39.4967 48.4791 40.6665 47.8651 41.9113L45.8132 45.9006C45.0942 47.2954 44.3604 48.7502 43.6414 50.2799C42.9225 51.8097 42.1886 53.3394 41.4697 54.8692C40.7508 56.3989 40.1068 57.8837 39.5376 59.3384C38.3095 62.5779 37.6954 65.3225 37.6954 67.5871C37.6954 68.9519 37.8302 70.0767 38.0848 70.9615C38.9685 69.5518 40.0469 68.082 41.3349 66.5523L45.5585 61.813C50.4412 56.5339 53.6164 53.0394 55.0842 51.3147C58.514 47.2654 61.15 43.456 62.9773 39.8716C63.7261 38.4468 64.0856 37.142 64.0856 35.9722C64.0856 33.8126 63.4865 32.1929 62.3033 31.113C61.8839 30.6931 61.824 30.1832 62.1385 29.5683C62.4531 28.9534 62.7676 28.5184 63.0821 28.2035C63.8609 27.4986 64.7446 27.1387 65.7331 27.1387C66.7216 27.1387 67.5454 27.3336 68.2343 27.7386C68.9233 28.1435 69.4775 28.6534 69.8968 29.2833C70.7655 30.5131 71.1999 32.0279 71.1999 33.8576C71.1999 35.6723 70.8105 37.607 70.0466 39.6316C69.2678 41.6713 68.2643 43.651 67.0062 45.6007C65.7481 47.5353 64.3252 49.425 62.7227 51.2397C61.1201 53.0545 59.4875 54.7942 57.825 56.4439L48.7188 65.0525C45.9629 67.827 44.1207 69.7317 43.2071 70.7516C41.4398 72.7312 40.3015 74.021 39.8072 74.6509C39.313 75.2808 38.8487 75.6408 38.4443 75.7608C38.0399 75.8807 37.5007 75.9407 36.8117 75.9407C36.1228 75.9407 35.4338 75.6408 34.7149 75.0409C34.0259 74.471 33.4418 73.7361 32.9925 72.8812Z" fill="white"/>
</g>
</svg>
