<svg width="13" height="13" viewBox="0 0 13 13" fill="none" xmlns="http://www.w3.org/2000/svg">
<path id="Vector" d="M12.6524 6.4737C12.6048 6.35095 12.5335 6.2388 12.4424 6.1437L7.44242 1.1437C7.34918 1.05046 7.23849 0.976502 7.11667 0.926042C6.99485 0.875581 6.86428 0.849609 6.73242 0.849609C6.46612 0.849609 6.21073 0.955397 6.02242 1.1437C5.92918 1.23694 5.85522 1.34763 5.80476 1.46945C5.7543 1.59127 5.72833 1.72184 5.72833 1.8537C5.72833 2.12 5.83412 2.3754 6.02242 2.5637L9.32242 5.8537H1.73242C1.46721 5.8537 1.21285 5.95906 1.02532 6.14659C0.837779 6.33413 0.732422 6.58848 0.732422 6.8537C0.732422 7.11892 0.837779 7.37327 1.02532 7.56081C1.21285 7.74834 1.46721 7.8537 1.73242 7.8537H9.32242L6.02242 11.1437C5.92869 11.2367 5.8543 11.3473 5.80353 11.4691C5.75276 11.591 5.72662 11.7217 5.72662 11.8537C5.72662 11.9857 5.75276 12.1164 5.80353 12.2383C5.8543 12.3601 5.92869 12.4707 6.02242 12.5637C6.11538 12.6574 6.22599 12.7318 6.34784 12.7826C6.4697 12.8334 6.60041 12.8595 6.73242 12.8595C6.86443 12.8595 6.99514 12.8334 7.117 12.7826C7.23886 12.7318 7.34946 12.6574 7.44242 12.5637L12.4424 7.5637C12.5335 7.4686 12.6048 7.35645 12.6524 7.2337C12.7524 6.99024 12.7524 6.71716 12.6524 6.4737Z" fill="#0D161A"/>
</svg>
